<svg id="PATTERN" xmlns="http://www.w3.org/2000/svg" xmlns:xlink="http://www.w3.org/1999/xlink" viewBox="0 0 528.68 785.89"><defs><style>.cls-1{fill:none;}.cls-2{fill:#48918a;}.cls-3{fill:#ee5e5c;}.cls-4{fill:#f49c4a;}.cls-5{fill:#001d3c;}.cls-6{fill:url(#Nueva_muestra_de_motivo_9);}</style><pattern id="Nueva_muestra_de_motivo_9" data-name="Nueva muestra de motivo 9" width="415.87" height="416.13" patternTransform="translate(-643.07 -104.92) scale(1.57)" patternUnits="userSpaceOnUse" viewBox="0 0 415.87 416.13"><rect class="cls-1" width="415.87" height="416.13"/><path class="cls-2" d="M363.22,156H415a51.81,51.81,0,1,0-51.81,51.81Z"/><path class="cls-2" d="M311.22,260.54c0-.14,0-.29,0-.43a51.82,51.82,0,1,0-103.63,0c0,.14,0,.29,0,.43Z"/><circle class="cls-3" cx="51.81" cy="156.03" r="51.81" transform="translate(-36.36 17.27) rotate(-14.06)"/><path class="cls-3" d="M155.62,103.63A51.82,51.82,0,0,0,155.62,0V103.63Z"/><circle class="cls-2" cx="285.33" cy="27.72" r="25.91"/><circle class="cls-2" cx="51.81" cy="260.88" r="51.81" transform="translate(-69.28 24.07) rotate(-15.85)"/><circle class="cls-2" cx="259.42" cy="260.88" r="51.81" transform="translate(-53.48 67.36) rotate(-13.42)"/><path class="cls-4" d="M259.07.63a51.82,51.82,0,0,0-51.81,51.82h51.81Z"/><circle class="cls-2" cx="155.62" cy="156.03" r="51.81" transform="translate(-30.01 37.27) rotate(-12.47)"/><path class="cls-3" d="M103.89,156a51.81,51.81,0,0,0,51.81,51.81V156Z"/><path class="cls-4" d="M207.43,156.28a51.81,51.81,0,0,0-51.81-51.81v51.81Z"/><circle class="cls-3" cx="362.87" cy="52.33" r="51.81" transform="translate(-1.6 92.01) rotate(-14.42)"/><path class="cls-4" d="M362.87,104.06a51.82,51.82,0,0,0,51.82-51.81H362.87Z"/><path class="cls-4" d="M363.13.52a51.81,51.81,0,0,0-51.81,51.81h51.81Z"/><path class="cls-2" d="M207.43,51.72A51.82,51.82,0,0,0,155.62,0V51.72Z"/><path class="cls-3" d="M103.62,51.81A51.81,51.81,0,0,0,0,51.81Z"/><path class="cls-2" d="M52.2,51.81c0,.26,0,.52,0,.78a51.82,51.82,0,1,0,103.63,0c0-.26,0-.52,0-.78Z"/><path class="cls-3" d="M259.07,52a51.81,51.81,0,0,0,0,103.62Z"/><path class="cls-4" d="M259.42,104.21h-.35V207.83h.35a51.82,51.82,0,0,0,0-103.63Z"/><path class="cls-4" d="M363.35,104.25a51.82,51.82,0,0,0-51.82,51.82h51.82Z"/><circle class="cls-3" cx="129.71" cy="388.41" r="25.91"/><circle class="cls-4" cx="155.62" cy="260.11" r="51.81" transform="translate(-55.6 42.71) rotate(-13.28)"/><circle class="cls-2" cx="51.81" cy="260.11" r="51.81" transform="translate(-55.69 17.65) rotate(-12.65)"/><circle class="cls-2" cx="51.81" cy="260.11" r="51.81" transform="translate(-55.69 17.65) rotate(-12.65)"/><path class="cls-4" d="M207.78,364.33A51.82,51.82,0,0,0,156,312.51v51.82Z"/><path class="cls-4" d="M207.6,364.32a51.81,51.81,0,0,0,51.82,51.81V364.32Z"/><path class="cls-4" d="M311.66,260.71a52.29,52.29,0,0,0-52.29-52.29v52.29Z"/><path class="cls-4" d="M207.17,260.45a52.29,52.29,0,0,0,52.29,52.29V260.45Z"/><path class="cls-4" d="M311.27,312.74a52.29,52.29,0,0,0,52.29-52.29H311.27Z"/><path class="cls-4" d="M362.94,364.4a52.29,52.29,0,0,0,52.29-52.28H362.94Z"/><circle class="cls-3" cx="52.16" cy="363.8" r="51.81" transform="translate(-142.92 52.32) rotate(-23.9)"/><path class="cls-4" d="M.43,363.8a51.82,51.82,0,0,0,51.82,51.82V363.8Z"/><path class="cls-4" d="M104,364.06a51.8,51.8,0,0,0-51.81-51.81v51.81Z"/><path class="cls-2" d="M363,364.33c0-.26,0-.52,0-.79a51.81,51.81,0,1,0-103.62,0c0,.27,0,.53,0,.79Z"/><path class="cls-3" d="M156,311.92a51.81,51.81,0,0,0,0-103.62Z"/><path class="cls-4" d="M51.69,311.88a51.81,51.81,0,0,0,51.81-51.81H51.69Z"/><path class="cls-3" d="M364.05,156.29h-.28V259.92h.28a51.82,51.82,0,1,0,0-103.63Z"/><path class="cls-3" d="M363.09,364.33v51h.13a51.81,51.81,0,0,0,51.8-51Z"/><path class="cls-3" d="M259.59,364.29v51.84a51.81,51.81,0,0,0,51.82-51.81v0Z"/></pattern></defs><rect class="cls-5" width="528.68" height="785.89"/><rect class="cls-6" width="528.68" height="785.89"/></svg>